<?xml version="1.0" standalone="no"?>
<!DOCTYPE svg PUBLIC "-//W3C//DTD SVG 20010904//EN"
 "http://www.w3.org/TR/2001/REC-SVG-20010904/DTD/svg10.dtd">
<svg version="1.0" xmlns="http://www.w3.org/2000/svg"
 width="575.000000pt" height="575.000000pt" viewBox="0 0 575.000000 575.000000"
 preserveAspectRatio="xMidYMid meet">
<metadata>
Created by potrace 1.14, written by Peter Selinger 2001-2017
</metadata>
<g transform="translate(0.000000,575.000000) scale(0.100000,-0.100000)"
fill="#000000" stroke="none">
<path d="M85 3484 c-40 -10 -64 -27 -76 -56 -16 -38 -5 -106 21 -132 20 -20
33 -21 313 -27 256 -5 298 -8 340 -24 26 -11 47 -23 47 -27 0 -4 6 -8 14 -8
18 0 109 -89 138 -136 111 -178 53 -408 -132 -530 -65 -43 -112 -56 -224 -64
-91 -6 -101 -9 -123 -34 -22 -26 -25 -35 -25 -76 0 -43 3 -52 27 -75 23 -24
30 -25 140 -25 99 0 128 4 193 26 167 56 280 151 351 296 113 232 83 501 -79
690 -58 67 -176 142 -273 174 -80 26 -90 27 -357 30 -151 2 -284 1 -295 -2z"/>
<path d="M1774 3468 c-45 -21 -57 -98 -26 -158 10 -19 47 -89 82 -155 34 -66
96 -182 136 -257 41 -75 74 -139 74 -142 0 -4 11 -23 23 -44 13 -20 55 -98 94
-172 141 -272 140 -270 217 -270 62 0 96 30 103 90 4 43 -8 68 -272 565 -152
286 -285 528 -297 538 -23 19 -99 22 -134 5z"/>
<path d="M2745 3462 c-72 -31 -101 -50 -139 -93 -65 -71 -81 -118 -81 -239 0
-99 2 -109 33 -172 37 -75 88 -124 168 -160 44 -20 70 -23 246 -28 218 -6 227
-8 276 -80 38 -57 26 -115 -38 -175 l-31 -30 -297 -5 c-206 -3 -303 -9 -318
-17 -30 -17 -54 -57 -54 -90 0 -38 34 -91 62 -98 13 -3 167 -5 343 -3 l320 3
58 29 c75 36 123 85 154 155 14 31 31 70 39 88 19 42 18 117 -2 161 -67 151
-97 187 -196 239 -51 26 -60 27 -254 33 -199 5 -201 6 -236 32 -72 55 -85 135
-32 198 46 54 48 55 366 60 l297 5 31 30 c17 16 33 39 36 51 7 27 -29 99 -55
114 -13 6 -137 10 -338 9 -277 0 -323 -2 -358 -17z"/>
<path d="M3567 3469 c-46 -27 -47 -35 -47 -590 0 -555 2 -577 47 -598 43 -20
109 -13 140 13 l28 24 0 557 0 557 -28 24 c-21 18 -40 24 -75 24 -26 0 -55 -5
-65 -11z"/>
<path d="M4383 3468 c-12 -6 -27 -24 -32 -41 -7 -19 -11 -213 -11 -554 0 -456
2 -529 16 -558 17 -36 37 -45 99 -45 52 0 82 21 95 68 6 23 10 228 10 550 0
548 -1 556 -49 582 -25 13 -99 12 -128 -2z"/>
<path d="M4624 3457 c-20 -18 -28 -35 -31 -73 l-5 -49 157 -175 c86 -96 167
-180 178 -187 12 -7 41 -12 65 -13 35 0 49 6 73 29 37 38 41 103 7 147 -45 59
-290 325 -308 334 -35 19 -107 12 -136 -13z"/>
<path d="M5546 3437 c-146 -153 -285 -318 -291 -346 -8 -39 10 -96 38 -116 22
-15 92 -20 122 -9 23 9 315 332 326 361 19 52 6 112 -30 140 -9 7 -40 13 -70
13 -51 0 -57 -3 -95 -43z"/>
<path d="M54 3101 c-54 -23 -54 -27 -54 -419 l0 -363 25 -24 c19 -20 34 -25
77 -25 65 0 94 18 108 68 13 48 13 645 0 693 -6 20 -19 44 -30 54 -22 20 -95
29 -126 16z"/>
<path d="M1568 3073 c-14 -4 -68 -73 -68 -88 0 -4 -53 -106 -119 -228 -177
-331 -181 -340 -181 -392 0 -65 31 -95 99 -95 38 0 56 5 75 23 13 12 98 159
187 327 151 282 163 309 163 358 1 47 -3 57 -27 78 -27 23 -80 30 -129 17z"/>
<path d="M3929 2951 c-24 -24 -29 -38 -29 -76 0 -38 5 -52 29 -76 28 -27 34
-29 110 -29 70 0 83 3 108 24 25 21 28 31 28 81 0 50 -3 60 -28 81 -25 21 -38
24 -108 24 -76 0 -82 -2 -110 -29z"/>
<path d="M5122 2815 c-54 -24 -62 -58 -62 -270 0 -248 12 -275 117 -275 51 1
73 12 91 47 16 29 16 422 1 456 -21 46 -92 67 -147 42z"/>
<path d="M1767 2652 c-63 -38 -59 -155 7 -186 42 -20 76 -20 121 -2 41 18 55
42 55 98 -1 68 -45 109 -117 107 -21 0 -50 -8 -66 -17z"/>
</g>
</svg>
